<mxfile host="Electron" modified="2024-02-27T07:07:24.489Z" agent="Mozilla/5.0 (Windows NT 10.0; Win64; x64) AppleWebKit/537.36 (KHTML, like Gecko) draw.io/23.1.5 Chrome/120.0.6099.109 Electron/28.1.0 Safari/537.36" etag="lx4v9ARPfLIiBVHg595a" version="23.1.5" type="device">
  <diagram name="Page-1" id="viIcu50T6LygO2T--FVd">
    <mxGraphModel dx="959" dy="2523" grid="0" gridSize="10" guides="1" tooltips="1" connect="1" arrows="1" fold="1" page="1" pageScale="1" pageWidth="800" pageHeight="800" math="0" shadow="0">
      <root>
        <mxCell id="0" />
        <mxCell id="1" value="light" parent="0" visible="0" />
        <mxCell id="ik-Oswm8SHKjp2aYhbDL-30" value="" style="rounded=1;whiteSpace=wrap;html=1;arcSize=31;strokeColor=none;strokeWidth=1;fillColor=#1CA5B8;fontColor=#ffffff;whiteSpace=wrap;align=left;verticalAlign=middle;spacingLeft=0;fontStyle=0;fontSize=14;spacing=10;shadow=0;glass=0;labelBackgroundColor=none;sketch=1;jiggle=2;curveFitting=1;fontFamily=Helvetica;" parent="1" vertex="1">
          <mxGeometry x="563" y="-630" width="72" height="276" as="geometry" />
        </mxCell>
        <mxCell id="ik-Oswm8SHKjp2aYhbDL-28" value="" style="rounded=1;whiteSpace=wrap;html=1;arcSize=10;strokeColor=none;strokeWidth=1;fillColor=#FFBC26;fontColor=#000000;whiteSpace=wrap;align=left;verticalAlign=middle;spacingLeft=0;fontStyle=1;fontSize=14;spacing=10;shadow=0;glass=0;labelBackgroundColor=none;sketch=1;jiggle=2;curveFitting=1;fontFamily=Helvetica;" parent="1" vertex="1">
          <mxGeometry x="137" y="-631" width="418" height="276" as="geometry" />
        </mxCell>
        <mxCell id="ik-Oswm8SHKjp2aYhbDL-22" value="&lt;font face=&quot;Architects Daughter&quot;&gt;&lt;span&gt;UI / UX&lt;/span&gt;&lt;/font&gt;" style="text;whiteSpace=wrap;html=1;fontSize=16;fontFamily=Helvetica;fontColor=default;align=center;verticalAlign=middle;fontStyle=0" parent="1" vertex="1">
          <mxGeometry x="345" y="-420" width="139" height="22" as="geometry" />
        </mxCell>
        <mxCell id="ik-Oswm8SHKjp2aYhbDL-25" value="&lt;font face=&quot;Architects Daughter&quot;&gt;&lt;span&gt;API Documentation&lt;/span&gt;&lt;/font&gt;" style="text;whiteSpace=wrap;html=1;fontSize=16;fontFamily=Helvetica;fontColor=default;align=center;verticalAlign=middle;fontStyle=0" parent="1" vertex="1">
          <mxGeometry x="408" y="-396" width="139" height="22" as="geometry" />
        </mxCell>
        <mxCell id="ik-Oswm8SHKjp2aYhbDL-27" value="" style="group" parent="1" vertex="1" connectable="0">
          <mxGeometry x="147" y="-503" width="400" height="20" as="geometry" />
        </mxCell>
        <mxCell id="ik-Oswm8SHKjp2aYhbDL-7" value="40%&lt;br&gt;Infrastructure" style="shape=crossbar;whiteSpace=wrap;html=1;rounded=1;shadow=0;glass=0;labelBackgroundColor=none;sketch=1;jiggle=2;curveFitting=1;strokeColor=default;strokeWidth=2;align=center;verticalAlign=middle;fontFamily=Architects Daughter;fontSize=16;fontColor=default;fillColor=default;fontSource=https%3A%2F%2Ffonts.googleapis.com%2Fcss%3Ffamily%3DArchitects%2BDaughter;fontStyle=1" parent="ik-Oswm8SHKjp2aYhbDL-27" vertex="1">
          <mxGeometry width="199.68798751950078" height="20" as="geometry" />
        </mxCell>
        <mxCell id="ik-Oswm8SHKjp2aYhbDL-13" value="20%&lt;br&gt;finance" style="shape=crossbar;whiteSpace=wrap;html=1;rounded=1;shadow=0;glass=0;labelBackgroundColor=none;sketch=1;jiggle=2;curveFitting=1;strokeColor=default;strokeWidth=2;align=center;verticalAlign=middle;fontFamily=Architects Daughter;fontSize=16;fontColor=default;fillColor=default;fontSource=https%3A%2F%2Ffonts.googleapis.com%2Fcss%3Ffamily%3DArchitects%2BDaughter;fontStyle=1" parent="ik-Oswm8SHKjp2aYhbDL-27" vertex="1">
          <mxGeometry x="199.68798751950078" width="99.84399375975039" height="20" as="geometry" />
        </mxCell>
        <mxCell id="ik-Oswm8SHKjp2aYhbDL-14" value="10%&lt;br&gt;&amp;nbsp;" style="shape=crossbar;whiteSpace=wrap;html=1;rounded=1;shadow=0;glass=0;labelBackgroundColor=none;sketch=1;jiggle=2;curveFitting=1;strokeColor=default;strokeWidth=2;align=center;verticalAlign=middle;fontFamily=Architects Daughter;fontSize=16;fontColor=default;fillColor=default;fontSource=https%3A%2F%2Ffonts.googleapis.com%2Fcss%3Ffamily%3DArchitects%2BDaughter;fontStyle=1" parent="ik-Oswm8SHKjp2aYhbDL-27" vertex="1">
          <mxGeometry x="299.53198127925117" width="49.921996879875195" height="20" as="geometry" />
        </mxCell>
        <mxCell id="ik-Oswm8SHKjp2aYhbDL-21" value="5%&lt;br&gt;&amp;nbsp;" style="shape=crossbar;whiteSpace=wrap;html=1;rounded=1;shadow=0;glass=0;labelBackgroundColor=none;sketch=1;jiggle=2;curveFitting=1;strokeColor=default;strokeWidth=2;align=center;verticalAlign=middle;fontFamily=Architects Daughter;fontSize=16;fontColor=default;fillColor=default;fontSource=https%3A%2F%2Ffonts.googleapis.com%2Fcss%3Ffamily%3DArchitects%2BDaughter;fontStyle=1" parent="ik-Oswm8SHKjp2aYhbDL-27" vertex="1">
          <mxGeometry x="350.07800312012483" width="24.960998439937597" height="20" as="geometry" />
        </mxCell>
        <mxCell id="ik-Oswm8SHKjp2aYhbDL-24" value="5%&lt;br&gt;&amp;nbsp;" style="shape=crossbar;whiteSpace=wrap;html=1;rounded=1;shadow=0;glass=0;labelBackgroundColor=none;sketch=1;jiggle=2;curveFitting=1;strokeColor=default;strokeWidth=2;align=center;verticalAlign=middle;fontFamily=Architects Daughter;fontSize=16;fontColor=default;fillColor=default;fontSource=https%3A%2F%2Ffonts.googleapis.com%2Fcss%3Ffamily%3DArchitects%2BDaughter;fontStyle=1" parent="ik-Oswm8SHKjp2aYhbDL-27" vertex="1">
          <mxGeometry x="375.0390015600624" width="24.960998439937597" height="20" as="geometry" />
        </mxCell>
        <mxCell id="ik-Oswm8SHKjp2aYhbDL-20" style="edgeStyle=orthogonalEdgeStyle;rounded=0;sketch=1;hachureGap=4;jiggle=2;curveFitting=1;orthogonalLoop=1;jettySize=auto;html=1;exitX=0.5;exitY=0.5;exitDx=0;exitDy=0;exitPerimeter=0;fontFamily=Helvetica;fontSource=https%3A%2F%2Ffonts.googleapis.com%2Fcss%3Ffamily%3DArchitects%2BDaughter;fontSize=16;fontColor=default;startSize=8;endSize=8;" parent="1" source="ik-Oswm8SHKjp2aYhbDL-21" target="ik-Oswm8SHKjp2aYhbDL-22" edge="1">
          <mxGeometry relative="1" as="geometry">
            <Array as="points">
              <mxPoint x="510" y="-443" />
              <mxPoint x="415" y="-443" />
            </Array>
          </mxGeometry>
        </mxCell>
        <mxCell id="ik-Oswm8SHKjp2aYhbDL-23" style="edgeStyle=orthogonalEdgeStyle;rounded=0;sketch=1;hachureGap=4;jiggle=2;curveFitting=1;orthogonalLoop=1;jettySize=auto;html=1;exitX=0.5;exitY=0.5;exitDx=0;exitDy=0;exitPerimeter=0;fontFamily=Helvetica;fontSource=https%3A%2F%2Ffonts.googleapis.com%2Fcss%3Ffamily%3DArchitects%2BDaughter;fontSize=16;fontColor=default;startSize=8;endSize=8;" parent="1" source="ik-Oswm8SHKjp2aYhbDL-24" target="ik-Oswm8SHKjp2aYhbDL-25" edge="1">
          <mxGeometry relative="1" as="geometry">
            <Array as="points">
              <mxPoint x="535" y="-422" />
              <mxPoint x="478" y="-422" />
            </Array>
          </mxGeometry>
        </mxCell>
        <mxCell id="ik-Oswm8SHKjp2aYhbDL-31" value="&lt;font face=&quot;Architects Daughter&quot;&gt;&lt;span&gt;e-commerce&lt;/span&gt;&lt;/font&gt;" style="text;whiteSpace=wrap;html=1;fontSize=16;fontFamily=Helvetica;fontColor=default;align=center;verticalAlign=middle;fontStyle=0" parent="1" vertex="1">
          <mxGeometry x="277.5" y="-438" width="139" height="22" as="geometry" />
        </mxCell>
        <mxCell id="ik-Oswm8SHKjp2aYhbDL-19" style="edgeStyle=orthogonalEdgeStyle;rounded=0;sketch=1;hachureGap=4;jiggle=2;curveFitting=1;orthogonalLoop=1;jettySize=auto;html=1;exitX=0.5;exitY=0.5;exitDx=0;exitDy=0;exitPerimeter=0;fontFamily=Helvetica;fontSource=https%3A%2F%2Ffonts.googleapis.com%2Fcss%3Ffamily%3DArchitects%2BDaughter;fontSize=16;fontColor=default;startSize=8;endSize=8;entryX=0.475;entryY=0.091;entryDx=0;entryDy=0;entryPerimeter=0;" parent="1" source="ik-Oswm8SHKjp2aYhbDL-14" target="ik-Oswm8SHKjp2aYhbDL-31" edge="1">
          <mxGeometry relative="1" as="geometry">
            <mxPoint x="494" y="-267" as="targetPoint" />
            <Array as="points">
              <mxPoint x="471" y="-457" />
              <mxPoint x="344" y="-457" />
            </Array>
          </mxGeometry>
        </mxCell>
        <mxCell id="ik-Oswm8SHKjp2aYhbDL-71" value="IT&lt;br style=&quot;font-size: 26px;&quot;&gt;(80%)" style="rounded=1;whiteSpace=wrap;html=1;strokeWidth=2;fillWeight=4;hachureGap=8;hachureAngle=45;fillColor=#999900;sketch=1;shadow=0;glass=0;labelBackgroundColor=none;jiggle=2;curveFitting=1;strokeColor=default;align=center;verticalAlign=bottom;fontFamily=Architects Daughter;fontSize=26;fontColor=default;labelPosition=center;verticalLabelPosition=top;fontSource=https%3A%2F%2Ffonts.googleapis.com%2Fcss%3Ffamily%3DArchitects%2BDaughter;fontStyle=1" parent="1" vertex="1">
          <mxGeometry x="147" y="-545" width="402" height="25" as="geometry" />
        </mxCell>
        <mxCell id="ik-Oswm8SHKjp2aYhbDL-72" value="ETC.&lt;br&gt;(20%)" style="rounded=1;whiteSpace=wrap;html=1;strokeWidth=2;fillWeight=4;hachureGap=8;hachureAngle=45;fillColor=#9999FF;sketch=1;shadow=0;glass=0;labelBackgroundColor=none;jiggle=2;curveFitting=1;strokeColor=default;align=center;verticalAlign=bottom;fontFamily=Architects Daughter;fontSize=26;fontColor=default;labelPosition=center;verticalLabelPosition=top;fontSource=https%3A%2F%2Ffonts.googleapis.com%2Fcss%3Ffamily%3DArchitects%2BDaughter;fontStyle=1" parent="1" vertex="1">
          <mxGeometry x="569" y="-545" width="60" height="25" as="geometry" />
        </mxCell>
        <mxCell id="ik-Oswm8SHKjp2aYhbDL-79" value="&lt;font face=&quot;Architects Daughter&quot; style=&quot;font-size: 15px;&quot;&gt;Art,&lt;br style=&quot;font-size: 15px;&quot;&gt;Social Science,&lt;br style=&quot;font-size: 15px;&quot;&gt;Media &amp;amp; commu-nication&lt;br style=&quot;font-size: 15px;&quot;&gt;&lt;/font&gt;" style="text;whiteSpace=wrap;html=1;fontSize=15;fontFamily=Helvetica;fontColor=default;align=center;verticalAlign=top;fontStyle=0" parent="1" vertex="1">
          <mxGeometry x="569" y="-512" width="61" height="143" as="geometry" />
        </mxCell>
        <mxCell id="ik-Oswm8SHKjp2aYhbDL-80" value="&lt;font face=&quot;Architects Daughter&quot;&gt;&lt;span&gt;by format&lt;/span&gt;&lt;/font&gt;" style="text;whiteSpace=wrap;html=1;fontSize=16;fontFamily=Helvetica;fontColor=default;align=left;verticalAlign=middle;fontStyle=1" parent="1" vertex="1">
          <mxGeometry x="143" y="-343" width="139" height="22" as="geometry" />
        </mxCell>
        <mxCell id="ik-Oswm8SHKjp2aYhbDL-60" value="30%&lt;br&gt;documents" style="rounded=1;whiteSpace=wrap;html=1;arcSize=50;strokeColor=none;strokeWidth=1;fillColor=#727F8C;fontColor=default;whiteSpace=wrap;align=center;verticalAlign=middle;spacingLeft=0;fontStyle=1;fontSize=18;spacing=10;shadow=0;glass=0;labelBackgroundColor=none;sketch=1;jiggle=2;curveFitting=1;fontFamily=Architects Daughter;fontSource=https%3A%2F%2Ffonts.googleapis.com%2Fcss%3Ffamily%3DArchitects%2BDaughter;fillStyle=hachure;container=0;" parent="1" vertex="1">
          <mxGeometry x="137" y="-317" width="149.1238447319778" height="50" as="geometry" />
        </mxCell>
        <mxCell id="ik-Oswm8SHKjp2aYhbDL-65" value="10%&lt;br&gt;ETC." style="rounded=1;whiteSpace=wrap;html=1;arcSize=50;strokeColor=none;strokeWidth=1;fillColor=#727F8C;fontColor=default;whiteSpace=wrap;align=center;verticalAlign=middle;spacingLeft=0;fontStyle=1;fontSize=18;spacing=0;shadow=0;glass=0;labelBackgroundColor=none;sketch=1;jiggle=2;curveFitting=1;fontFamily=Architects Daughter;fontSource=https%3A%2F%2Ffonts.googleapis.com%2Fcss%3Ffamily%3DArchitects%2BDaughter;fillStyle=hachure;container=0;horizontal=1;" parent="1" vertex="1">
          <mxGeometry x="586.2125693160813" y="-317" width="48.78743068391867" height="50" as="geometry" />
        </mxCell>
        <mxCell id="ik-Oswm8SHKjp2aYhbDL-61" value="20% website" style="rounded=1;whiteSpace=wrap;html=1;arcSize=50;strokeColor=none;strokeWidth=1;fillColor=#727F8C;fontColor=default;whiteSpace=wrap;align=center;verticalAlign=middle;spacingLeft=0;fontStyle=1;fontSize=18;spacing=10;shadow=0;glass=0;labelBackgroundColor=none;sketch=1;jiggle=2;curveFitting=1;fontFamily=Architects Daughter;fontSource=https%3A%2F%2Ffonts.googleapis.com%2Fcss%3Ffamily%3DArchitects%2BDaughter;fillStyle=hachure;container=0;" parent="1" vertex="1">
          <mxGeometry x="291" y="-317" width="93" height="50" as="geometry" />
        </mxCell>
        <mxCell id="ik-Oswm8SHKjp2aYhbDL-62" value="20%&lt;br&gt;subtitling" style="rounded=1;whiteSpace=wrap;html=1;arcSize=50;strokeColor=none;strokeWidth=1;fillColor=#727F8C;fontColor=default;whiteSpace=wrap;align=center;verticalAlign=middle;spacingLeft=0;fontStyle=1;fontSize=18;spacing=10;shadow=0;glass=0;labelBackgroundColor=none;sketch=1;jiggle=2;curveFitting=1;fontFamily=Architects Daughter;fontSource=https%3A%2F%2Ffonts.googleapis.com%2Fcss%3Ffamily%3DArchitects%2BDaughter;fillStyle=hachure;container=0;" parent="1" vertex="1">
          <mxGeometry x="389" y="-317" width="93" height="50" as="geometry" />
        </mxCell>
        <mxCell id="ik-Oswm8SHKjp2aYhbDL-64" value="20%&lt;br&gt;P.R." style="rounded=1;whiteSpace=wrap;html=1;arcSize=50;strokeColor=none;strokeWidth=1;fillColor=#727F8C;fontColor=default;whiteSpace=wrap;align=center;verticalAlign=middle;spacingLeft=0;fontStyle=1;fontSize=18;spacing=10;shadow=0;glass=0;labelBackgroundColor=none;sketch=1;jiggle=2;curveFitting=1;fontFamily=Architects Daughter;fontSource=https%3A%2F%2Ffonts.googleapis.com%2Fcss%3Ffamily%3DArchitects%2BDaughter;fillStyle=hachure;container=0;" parent="1" vertex="1">
          <mxGeometry x="487" y="-317" width="93" height="50" as="geometry" />
        </mxCell>
        <mxCell id="ik-Oswm8SHKjp2aYhbDL-115" value="dark" parent="0" visible="0" />
        <mxCell id="ik-Oswm8SHKjp2aYhbDL-116" value="" style="rounded=1;whiteSpace=wrap;html=1;arcSize=31;strokeColor=none;strokeWidth=1;fillColor=#1CA5B8;fontColor=#ffffff;whiteSpace=wrap;align=left;verticalAlign=middle;spacingLeft=0;fontStyle=0;fontSize=14;spacing=10;shadow=0;glass=0;labelBackgroundColor=none;sketch=1;jiggle=2;curveFitting=1;fontFamily=Helvetica;opacity=50;" parent="ik-Oswm8SHKjp2aYhbDL-115" vertex="1">
          <mxGeometry x="563" y="-630" width="72" height="276" as="geometry" />
        </mxCell>
        <mxCell id="ik-Oswm8SHKjp2aYhbDL-117" value="" style="rounded=1;whiteSpace=wrap;html=1;arcSize=10;strokeColor=none;strokeWidth=1;fillColor=#FFBC26;fontColor=#000000;whiteSpace=wrap;align=left;verticalAlign=middle;spacingLeft=0;fontStyle=1;fontSize=14;spacing=10;shadow=0;glass=0;labelBackgroundColor=none;sketch=1;jiggle=2;curveFitting=1;fontFamily=Helvetica;opacity=50;" parent="ik-Oswm8SHKjp2aYhbDL-115" vertex="1">
          <mxGeometry x="137" y="-631" width="418" height="276" as="geometry" />
        </mxCell>
        <mxCell id="ik-Oswm8SHKjp2aYhbDL-118" value="&lt;font face=&quot;Architects Daughter&quot;&gt;&lt;span&gt;UI / UX&lt;/span&gt;&lt;/font&gt;" style="text;whiteSpace=wrap;html=1;fontSize=16;fontFamily=Helvetica;fontColor=default;align=center;verticalAlign=middle;fontStyle=0" parent="ik-Oswm8SHKjp2aYhbDL-115" vertex="1">
          <mxGeometry x="345" y="-420" width="139" height="22" as="geometry" />
        </mxCell>
        <mxCell id="ik-Oswm8SHKjp2aYhbDL-119" value="&lt;font face=&quot;Architects Daughter&quot;&gt;&lt;span&gt;API Documentation&lt;/span&gt;&lt;/font&gt;" style="text;whiteSpace=wrap;html=1;fontSize=16;fontFamily=Helvetica;fontColor=default;align=center;verticalAlign=middle;fontStyle=0" parent="ik-Oswm8SHKjp2aYhbDL-115" vertex="1">
          <mxGeometry x="408" y="-396" width="139" height="22" as="geometry" />
        </mxCell>
        <mxCell id="ik-Oswm8SHKjp2aYhbDL-120" value="" style="group" parent="ik-Oswm8SHKjp2aYhbDL-115" vertex="1" connectable="0">
          <mxGeometry x="147" y="-503" width="400" height="20" as="geometry" />
        </mxCell>
        <mxCell id="ik-Oswm8SHKjp2aYhbDL-121" value="40%&lt;br&gt;Infrastructure" style="shape=crossbar;whiteSpace=wrap;html=1;rounded=1;shadow=0;glass=0;labelBackgroundColor=none;sketch=1;jiggle=2;curveFitting=1;strokeColor=default;strokeWidth=2;align=center;verticalAlign=middle;fontFamily=Architects Daughter;fontSize=16;fontColor=default;fillColor=default;fontSource=https%3A%2F%2Ffonts.googleapis.com%2Fcss%3Ffamily%3DArchitects%2BDaughter;fontStyle=1" parent="ik-Oswm8SHKjp2aYhbDL-120" vertex="1">
          <mxGeometry width="199.68798751950078" height="20" as="geometry" />
        </mxCell>
        <mxCell id="ik-Oswm8SHKjp2aYhbDL-122" value="20%&lt;br&gt;finance" style="shape=crossbar;whiteSpace=wrap;html=1;rounded=1;shadow=0;glass=0;labelBackgroundColor=none;sketch=1;jiggle=2;curveFitting=1;strokeColor=default;strokeWidth=2;align=center;verticalAlign=middle;fontFamily=Architects Daughter;fontSize=16;fontColor=default;fillColor=default;fontSource=https%3A%2F%2Ffonts.googleapis.com%2Fcss%3Ffamily%3DArchitects%2BDaughter;fontStyle=1" parent="ik-Oswm8SHKjp2aYhbDL-120" vertex="1">
          <mxGeometry x="199.68798751950078" width="99.84399375975039" height="20" as="geometry" />
        </mxCell>
        <mxCell id="ik-Oswm8SHKjp2aYhbDL-123" value="10%&lt;br&gt;&amp;nbsp;" style="shape=crossbar;whiteSpace=wrap;html=1;rounded=1;shadow=0;glass=0;labelBackgroundColor=none;sketch=1;jiggle=2;curveFitting=1;strokeColor=default;strokeWidth=2;align=center;verticalAlign=middle;fontFamily=Architects Daughter;fontSize=16;fontColor=default;fillColor=default;fontSource=https%3A%2F%2Ffonts.googleapis.com%2Fcss%3Ffamily%3DArchitects%2BDaughter;fontStyle=1" parent="ik-Oswm8SHKjp2aYhbDL-120" vertex="1">
          <mxGeometry x="299.53198127925117" width="49.921996879875195" height="20" as="geometry" />
        </mxCell>
        <mxCell id="ik-Oswm8SHKjp2aYhbDL-124" value="5%&lt;br&gt;&amp;nbsp;" style="shape=crossbar;whiteSpace=wrap;html=1;rounded=1;shadow=0;glass=0;labelBackgroundColor=none;sketch=1;jiggle=2;curveFitting=1;strokeColor=default;strokeWidth=2;align=center;verticalAlign=middle;fontFamily=Architects Daughter;fontSize=16;fontColor=default;fillColor=default;fontSource=https%3A%2F%2Ffonts.googleapis.com%2Fcss%3Ffamily%3DArchitects%2BDaughter;fontStyle=1" parent="ik-Oswm8SHKjp2aYhbDL-120" vertex="1">
          <mxGeometry x="350.07800312012483" width="24.960998439937597" height="20" as="geometry" />
        </mxCell>
        <mxCell id="ik-Oswm8SHKjp2aYhbDL-125" value="5%&lt;br&gt;&amp;nbsp;" style="shape=crossbar;whiteSpace=wrap;html=1;rounded=1;shadow=0;glass=0;labelBackgroundColor=none;sketch=1;jiggle=2;curveFitting=1;strokeColor=default;strokeWidth=2;align=center;verticalAlign=middle;fontFamily=Architects Daughter;fontSize=16;fontColor=default;fillColor=default;fontSource=https%3A%2F%2Ffonts.googleapis.com%2Fcss%3Ffamily%3DArchitects%2BDaughter;fontStyle=1" parent="ik-Oswm8SHKjp2aYhbDL-120" vertex="1">
          <mxGeometry x="375.0390015600624" width="24.960998439937597" height="20" as="geometry" />
        </mxCell>
        <mxCell id="ik-Oswm8SHKjp2aYhbDL-126" style="edgeStyle=orthogonalEdgeStyle;rounded=0;sketch=1;hachureGap=4;jiggle=2;curveFitting=1;orthogonalLoop=1;jettySize=auto;html=1;exitX=0.5;exitY=0.5;exitDx=0;exitDy=0;exitPerimeter=0;fontFamily=Helvetica;fontSource=https%3A%2F%2Ffonts.googleapis.com%2Fcss%3Ffamily%3DArchitects%2BDaughter;fontSize=16;fontColor=default;startSize=8;endSize=8;" parent="ik-Oswm8SHKjp2aYhbDL-115" source="ik-Oswm8SHKjp2aYhbDL-124" target="ik-Oswm8SHKjp2aYhbDL-118" edge="1">
          <mxGeometry relative="1" as="geometry">
            <Array as="points">
              <mxPoint x="510" y="-443" />
              <mxPoint x="415" y="-443" />
            </Array>
          </mxGeometry>
        </mxCell>
        <mxCell id="ik-Oswm8SHKjp2aYhbDL-127" style="edgeStyle=orthogonalEdgeStyle;rounded=0;sketch=1;hachureGap=4;jiggle=2;curveFitting=1;orthogonalLoop=1;jettySize=auto;html=1;exitX=0.5;exitY=0.5;exitDx=0;exitDy=0;exitPerimeter=0;fontFamily=Helvetica;fontSource=https%3A%2F%2Ffonts.googleapis.com%2Fcss%3Ffamily%3DArchitects%2BDaughter;fontSize=16;fontColor=default;startSize=8;endSize=8;" parent="ik-Oswm8SHKjp2aYhbDL-115" source="ik-Oswm8SHKjp2aYhbDL-125" target="ik-Oswm8SHKjp2aYhbDL-119" edge="1">
          <mxGeometry relative="1" as="geometry">
            <Array as="points">
              <mxPoint x="535" y="-422" />
              <mxPoint x="478" y="-422" />
            </Array>
          </mxGeometry>
        </mxCell>
        <mxCell id="ik-Oswm8SHKjp2aYhbDL-128" value="&lt;font face=&quot;Architects Daughter&quot;&gt;&lt;span&gt;e-commerce&lt;/span&gt;&lt;/font&gt;" style="text;whiteSpace=wrap;html=1;fontSize=16;fontFamily=Helvetica;fontColor=default;align=center;verticalAlign=middle;fontStyle=0" parent="ik-Oswm8SHKjp2aYhbDL-115" vertex="1">
          <mxGeometry x="277.5" y="-438" width="139" height="22" as="geometry" />
        </mxCell>
        <mxCell id="ik-Oswm8SHKjp2aYhbDL-129" style="edgeStyle=orthogonalEdgeStyle;rounded=0;sketch=1;hachureGap=4;jiggle=2;curveFitting=1;orthogonalLoop=1;jettySize=auto;html=1;exitX=0.5;exitY=0.5;exitDx=0;exitDy=0;exitPerimeter=0;fontFamily=Helvetica;fontSource=https%3A%2F%2Ffonts.googleapis.com%2Fcss%3Ffamily%3DArchitects%2BDaughter;fontSize=16;fontColor=default;startSize=8;endSize=8;entryX=0.475;entryY=0.091;entryDx=0;entryDy=0;entryPerimeter=0;" parent="ik-Oswm8SHKjp2aYhbDL-115" source="ik-Oswm8SHKjp2aYhbDL-123" target="ik-Oswm8SHKjp2aYhbDL-128" edge="1">
          <mxGeometry relative="1" as="geometry">
            <mxPoint x="494" y="-267" as="targetPoint" />
            <Array as="points">
              <mxPoint x="471" y="-457" />
              <mxPoint x="344" y="-457" />
            </Array>
          </mxGeometry>
        </mxCell>
        <mxCell id="ik-Oswm8SHKjp2aYhbDL-130" value="IT&lt;br style=&quot;font-size: 26px;&quot;&gt;(80%)" style="rounded=1;whiteSpace=wrap;html=1;strokeWidth=2;fillWeight=4;hachureGap=8;hachureAngle=45;fillColor=#999900;sketch=1;shadow=0;glass=0;labelBackgroundColor=none;jiggle=2;curveFitting=1;strokeColor=default;align=center;verticalAlign=bottom;fontFamily=Architects Daughter;fontSize=26;fontColor=default;labelPosition=center;verticalLabelPosition=top;fontSource=https%3A%2F%2Ffonts.googleapis.com%2Fcss%3Ffamily%3DArchitects%2BDaughter;fontStyle=1" parent="ik-Oswm8SHKjp2aYhbDL-115" vertex="1">
          <mxGeometry x="147" y="-545" width="402" height="25" as="geometry" />
        </mxCell>
        <mxCell id="ik-Oswm8SHKjp2aYhbDL-131" value="ETC.&lt;br&gt;(20%)" style="rounded=1;whiteSpace=wrap;html=1;strokeWidth=2;fillWeight=4;hachureGap=8;hachureAngle=45;fillColor=#9999FF;sketch=1;shadow=0;glass=0;labelBackgroundColor=none;jiggle=2;curveFitting=1;strokeColor=default;align=center;verticalAlign=bottom;fontFamily=Architects Daughter;fontSize=26;fontColor=default;labelPosition=center;verticalLabelPosition=top;fontSource=https%3A%2F%2Ffonts.googleapis.com%2Fcss%3Ffamily%3DArchitects%2BDaughter;fontStyle=1" parent="ik-Oswm8SHKjp2aYhbDL-115" vertex="1">
          <mxGeometry x="569" y="-545" width="60" height="25" as="geometry" />
        </mxCell>
        <mxCell id="ik-Oswm8SHKjp2aYhbDL-132" value="&lt;font face=&quot;Architects Daughter&quot; style=&quot;font-size: 15px;&quot;&gt;Art,&lt;br style=&quot;font-size: 15px;&quot;&gt;Social Science,&lt;br style=&quot;font-size: 15px;&quot;&gt;Media &amp;amp; commu-nication&lt;br style=&quot;font-size: 15px;&quot;&gt;&lt;/font&gt;" style="text;whiteSpace=wrap;html=1;fontSize=15;fontFamily=Helvetica;fontColor=default;align=center;verticalAlign=top;fontStyle=0" parent="ik-Oswm8SHKjp2aYhbDL-115" vertex="1">
          <mxGeometry x="569" y="-512" width="61" height="143" as="geometry" />
        </mxCell>
        <mxCell id="ik-Oswm8SHKjp2aYhbDL-133" value="&lt;font face=&quot;Architects Daughter&quot;&gt;&lt;span&gt;by format&lt;/span&gt;&lt;/font&gt;" style="text;whiteSpace=wrap;html=1;fontSize=16;fontFamily=Helvetica;fontColor=default;align=left;verticalAlign=middle;fontStyle=1" parent="ik-Oswm8SHKjp2aYhbDL-115" vertex="1">
          <mxGeometry x="143" y="-343" width="139" height="22" as="geometry" />
        </mxCell>
        <mxCell id="ik-Oswm8SHKjp2aYhbDL-134" value="30%&lt;br&gt;documents" style="rounded=1;whiteSpace=wrap;html=1;arcSize=50;strokeColor=none;strokeWidth=1;fillColor=#727F8C;fontColor=#CCCCCC;whiteSpace=wrap;align=center;verticalAlign=middle;spacingLeft=0;fontStyle=1;fontSize=18;spacing=10;shadow=0;glass=0;labelBackgroundColor=none;sketch=1;jiggle=2;curveFitting=1;fontFamily=Architects Daughter;fontSource=https%3A%2F%2Ffonts.googleapis.com%2Fcss%3Ffamily%3DArchitects%2BDaughter;fillStyle=hachure;container=0;opacity=75;" parent="ik-Oswm8SHKjp2aYhbDL-115" vertex="1">
          <mxGeometry x="137" y="-317" width="149.1238447319778" height="50" as="geometry" />
        </mxCell>
        <mxCell id="ik-Oswm8SHKjp2aYhbDL-135" value="10%&lt;br&gt;ETC." style="rounded=1;whiteSpace=wrap;html=1;arcSize=50;strokeColor=none;strokeWidth=1;fillColor=#727F8C;fontColor=#CCCCCC;whiteSpace=wrap;align=center;verticalAlign=middle;spacingLeft=0;fontStyle=1;fontSize=18;spacing=0;shadow=0;glass=0;labelBackgroundColor=none;sketch=1;jiggle=2;curveFitting=1;fontFamily=Architects Daughter;fontSource=https%3A%2F%2Ffonts.googleapis.com%2Fcss%3Ffamily%3DArchitects%2BDaughter;fillStyle=hachure;container=0;horizontal=1;opacity=75;" parent="ik-Oswm8SHKjp2aYhbDL-115" vertex="1">
          <mxGeometry x="586.2125693160813" y="-317" width="48.78743068391867" height="50" as="geometry" />
        </mxCell>
        <mxCell id="ik-Oswm8SHKjp2aYhbDL-136" value="20% website" style="rounded=1;whiteSpace=wrap;html=1;arcSize=50;strokeColor=none;strokeWidth=1;fillColor=#727F8C;fontColor=#CCCCCC;whiteSpace=wrap;align=center;verticalAlign=middle;spacingLeft=0;fontStyle=1;fontSize=18;spacing=10;shadow=0;glass=0;labelBackgroundColor=none;sketch=1;jiggle=2;curveFitting=1;fontFamily=Architects Daughter;fontSource=https%3A%2F%2Ffonts.googleapis.com%2Fcss%3Ffamily%3DArchitects%2BDaughter;fillStyle=hachure;container=0;opacity=75;" parent="ik-Oswm8SHKjp2aYhbDL-115" vertex="1">
          <mxGeometry x="291" y="-317" width="93" height="50" as="geometry" />
        </mxCell>
        <mxCell id="ik-Oswm8SHKjp2aYhbDL-137" value="20%&lt;br&gt;subtitling" style="rounded=1;whiteSpace=wrap;html=1;arcSize=50;strokeColor=none;strokeWidth=1;fillColor=#727F8C;fontColor=#CCCCCC;whiteSpace=wrap;align=center;verticalAlign=middle;spacingLeft=0;fontStyle=1;fontSize=18;spacing=10;shadow=0;glass=0;labelBackgroundColor=none;sketch=1;jiggle=2;curveFitting=1;fontFamily=Architects Daughter;fontSource=https%3A%2F%2Ffonts.googleapis.com%2Fcss%3Ffamily%3DArchitects%2BDaughter;fillStyle=hachure;container=0;opacity=75;" parent="ik-Oswm8SHKjp2aYhbDL-115" vertex="1">
          <mxGeometry x="389" y="-317" width="93" height="50" as="geometry" />
        </mxCell>
        <mxCell id="ik-Oswm8SHKjp2aYhbDL-138" value="20%&lt;br&gt;P.R." style="rounded=1;whiteSpace=wrap;html=1;arcSize=50;strokeColor=none;strokeWidth=1;fillColor=#727F8C;fontColor=#CCCCCC;whiteSpace=wrap;align=center;verticalAlign=middle;spacingLeft=0;fontStyle=1;fontSize=18;spacing=10;shadow=0;glass=0;labelBackgroundColor=none;sketch=1;jiggle=2;curveFitting=1;fontFamily=Architects Daughter;fontSource=https%3A%2F%2Ffonts.googleapis.com%2Fcss%3Ffamily%3DArchitects%2BDaughter;fillStyle=hachure;container=0;opacity=75;" parent="ik-Oswm8SHKjp2aYhbDL-115" vertex="1">
          <mxGeometry x="487" y="-317" width="93" height="50" as="geometry" />
        </mxCell>
        <mxCell id="ik-Oswm8SHKjp2aYhbDL-139" value="neutral, glossy" style="" parent="0" visible="0" />
        <mxCell id="fKAavyPOBQqlRlKc0EKa-1" value="" style="rounded=1;whiteSpace=wrap;html=1;arcSize=10;strokeColor=none;strokeWidth=1;fillColor=#FFBC26;fontColor=#000000;whiteSpace=wrap;align=left;verticalAlign=middle;spacingLeft=0;fontStyle=1;fontSize=14;spacing=10;shadow=0;glass=0;labelBackgroundColor=none;sketch=1;jiggle=2;curveFitting=1;fontFamily=Helvetica;opacity=50;fillStyle=dashed;" parent="ik-Oswm8SHKjp2aYhbDL-139" vertex="1">
          <mxGeometry x="136" y="-595" width="490" height="260" as="geometry" />
        </mxCell>
        <mxCell id="ik-Oswm8SHKjp2aYhbDL-142" value="&lt;font style=&quot;font-size: 12px;&quot;&gt;&lt;span style=&quot;font-size: 12px;&quot;&gt;UI / UX&lt;/span&gt;&lt;/font&gt;" style="text;whiteSpace=wrap;html=1;fontSize=12;fontFamily=IBM Plex Sans Condensed;fontColor=default;align=center;verticalAlign=top;fontStyle=0;fontSource=https%3A%2F%2Ffonts.googleapis.com%2Fcss%3Ffamily%3DIBM%2BPlex%2BSans%2BCondensed;" parent="ik-Oswm8SHKjp2aYhbDL-139" vertex="1">
          <mxGeometry x="399" y="-424" width="55" height="22" as="geometry" />
        </mxCell>
        <mxCell id="ik-Oswm8SHKjp2aYhbDL-143" value="&lt;font style=&quot;font-size: 12px;&quot;&gt;&lt;span style=&quot;font-size: 12px;&quot;&gt;API Documentation&lt;/span&gt;&lt;/font&gt;" style="text;whiteSpace=wrap;html=1;fontSize=12;fontFamily=IBM Plex Sans Condensed;fontColor=default;align=center;verticalAlign=top;fontStyle=0;fontSource=https%3A%2F%2Ffonts.googleapis.com%2Fcss%3Ffamily%3DIBM%2BPlex%2BSans%2BCondensed;" parent="ik-Oswm8SHKjp2aYhbDL-139" vertex="1">
          <mxGeometry x="463" y="-424" width="83" height="39" as="geometry" />
        </mxCell>
        <mxCell id="ik-Oswm8SHKjp2aYhbDL-150" style="edgeStyle=orthogonalEdgeStyle;rounded=0;hachureGap=4;orthogonalLoop=1;jettySize=auto;html=1;exitX=0.5;exitY=0.5;exitDx=0;exitDy=0;exitPerimeter=0;fontFamily=IBM Plex Sans Condensed;fontSource=https%3A%2F%2Ffonts.googleapis.com%2Fcss%3Ffamily%3DIBM%2BPlex%2BSans%2BCondensed;fontSize=16;fontColor=default;startSize=8;endSize=3;endArrow=blockThin;endFill=1;strokeWidth=1;entryX=0.5;entryY=0;entryDx=0;entryDy=0;" parent="ik-Oswm8SHKjp2aYhbDL-139" source="ik-Oswm8SHKjp2aYhbDL-148" target="ik-Oswm8SHKjp2aYhbDL-142" edge="1">
          <mxGeometry relative="1" as="geometry">
            <Array as="points">
              <mxPoint x="509" y="-444" />
              <mxPoint x="427" y="-444" />
            </Array>
          </mxGeometry>
        </mxCell>
        <mxCell id="ik-Oswm8SHKjp2aYhbDL-151" style="edgeStyle=orthogonalEdgeStyle;rounded=0;hachureGap=4;orthogonalLoop=1;jettySize=auto;html=1;exitX=0.5;exitY=0.5;exitDx=0;exitDy=0;exitPerimeter=0;fontFamily=IBM Plex Sans Condensed;fontSource=https%3A%2F%2Ffonts.googleapis.com%2Fcss%3Ffamily%3DIBM%2BPlex%2BSans%2BCondensed;fontSize=16;fontColor=default;startSize=8;endSize=3;endArrow=blockThin;endFill=1;strokeWidth=1;entryX=0.5;entryY=0;entryDx=0;entryDy=0;" parent="ik-Oswm8SHKjp2aYhbDL-139" source="ik-Oswm8SHKjp2aYhbDL-149" target="ik-Oswm8SHKjp2aYhbDL-143" edge="1">
          <mxGeometry relative="1" as="geometry">
            <Array as="points">
              <mxPoint x="534" y="-438" />
              <mxPoint x="505" y="-438" />
            </Array>
          </mxGeometry>
        </mxCell>
        <mxCell id="ik-Oswm8SHKjp2aYhbDL-152" value="&lt;font style=&quot;font-size: 12px;&quot;&gt;&lt;span style=&quot;font-size: 12px;&quot;&gt;e-commerce&lt;/span&gt;&lt;/font&gt;" style="text;whiteSpace=wrap;html=1;fontSize=12;fontFamily=IBM Plex Sans Condensed;fontColor=default;align=center;verticalAlign=top;fontStyle=0;fontSource=https%3A%2F%2Ffonts.googleapis.com%2Fcss%3Ffamily%3DIBM%2BPlex%2BSans%2BCondensed;" parent="ik-Oswm8SHKjp2aYhbDL-139" vertex="1">
          <mxGeometry x="294.5" y="-424" width="104" height="22" as="geometry" />
        </mxCell>
        <mxCell id="ik-Oswm8SHKjp2aYhbDL-153" style="edgeStyle=orthogonalEdgeStyle;rounded=0;hachureGap=4;orthogonalLoop=1;jettySize=auto;html=1;exitX=0.5;exitY=0.5;exitDx=0;exitDy=0;exitPerimeter=0;fontFamily=IBM Plex Sans Condensed;fontSource=https%3A%2F%2Ffonts.googleapis.com%2Fcss%3Ffamily%3DIBM%2BPlex%2BSans%2BCondensed;fontSize=16;fontColor=default;startSize=8;endSize=3;entryX=0.475;entryY=0.091;entryDx=0;entryDy=0;entryPerimeter=0;endArrow=blockThin;endFill=1;strokeWidth=1;" parent="ik-Oswm8SHKjp2aYhbDL-139" source="ik-Oswm8SHKjp2aYhbDL-147" target="ik-Oswm8SHKjp2aYhbDL-152" edge="1">
          <mxGeometry relative="1" as="geometry">
            <mxPoint x="494" y="-267" as="targetPoint" />
            <Array as="points">
              <mxPoint x="472" y="-451" />
              <mxPoint x="344" y="-451" />
            </Array>
          </mxGeometry>
        </mxCell>
        <mxCell id="ik-Oswm8SHKjp2aYhbDL-154" value="IT&lt;br style=&quot;font-size: 17px;&quot;&gt;(80%)" style="rounded=1;whiteSpace=wrap;html=1;strokeWidth=2;fillWeight=4;hachureGap=8;hachureAngle=45;fillColor=#999900;shadow=0;glass=0;labelBackgroundColor=none;strokeColor=default;align=center;verticalAlign=bottom;fontFamily=IBM Plex Sans;fontSize=17;fontColor=default;labelPosition=center;verticalLabelPosition=top;fontSource=https%3A%2F%2Ffonts.googleapis.com%2Fcss%3Ffamily%3DIBM%2BPlex%2BSans;fontStyle=1;opacity=75;" parent="ik-Oswm8SHKjp2aYhbDL-139" vertex="1">
          <mxGeometry x="147" y="-539" width="399" height="25" as="geometry" />
        </mxCell>
        <mxCell id="ik-Oswm8SHKjp2aYhbDL-155" value="ETC.&lt;br style=&quot;font-size: 17px;&quot;&gt;(20%)" style="rounded=1;whiteSpace=wrap;html=1;strokeWidth=2;fillWeight=4;hachureGap=8;hachureAngle=45;fillColor=#9999FF;shadow=0;glass=0;labelBackgroundColor=none;strokeColor=default;align=center;verticalAlign=bottom;fontFamily=IBM Plex Sans;fontSize=17;fontColor=default;labelPosition=center;verticalLabelPosition=top;fontSource=https%3A%2F%2Ffonts.googleapis.com%2Fcss%3Ffamily%3DIBM%2BPlex%2BSans;fontStyle=1;opacity=75;" parent="ik-Oswm8SHKjp2aYhbDL-139" vertex="1">
          <mxGeometry x="556" y="-539" width="60" height="25" as="geometry" />
        </mxCell>
        <mxCell id="ik-Oswm8SHKjp2aYhbDL-156" value="&lt;font style=&quot;font-size: 12px;&quot;&gt;Art,&lt;br style=&quot;font-size: 12px;&quot;&gt;Social Science,&lt;br style=&quot;font-size: 12px;&quot;&gt;Media &amp;amp; commu-nication&lt;br style=&quot;font-size: 12px;&quot;&gt;&lt;/font&gt;" style="text;whiteSpace=wrap;html=1;fontSize=12;fontFamily=IBM Plex Sans Condensed;fontColor=default;align=center;verticalAlign=top;fontStyle=0;fontSource=https%3A%2F%2Ffonts.googleapis.com%2Fcss%3Ffamily%3DIBM%2BPlex%2BSans%2BCondensed;" parent="ik-Oswm8SHKjp2aYhbDL-139" vertex="1">
          <mxGeometry x="418" y="-182" width="61" height="143" as="geometry" />
        </mxCell>
        <mxCell id="ik-Oswm8SHKjp2aYhbDL-157" value="&lt;font&gt;&lt;span&gt;by format&lt;/span&gt;&lt;/font&gt;" style="text;whiteSpace=wrap;html=1;fontSize=16;fontFamily=IBM Plex Sans;fontColor=default;align=left;verticalAlign=middle;fontStyle=1;fontSource=https%3A%2F%2Ffonts.googleapis.com%2Fcss%3Ffamily%3DIBM%2BPlex%2BSans;" parent="ik-Oswm8SHKjp2aYhbDL-139" vertex="1">
          <mxGeometry x="143" y="-343" width="139" height="22" as="geometry" />
        </mxCell>
        <mxCell id="ik-Oswm8SHKjp2aYhbDL-158" value="30%&lt;br&gt;documents" style="rounded=1;whiteSpace=wrap;html=1;arcSize=50;strokeColor=none;strokeWidth=1;fillColor=#727F8C;fontColor=#CCCCCC;whiteSpace=wrap;align=center;verticalAlign=middle;spacingLeft=0;fontStyle=1;fontSize=18;spacing=10;shadow=0;glass=0;labelBackgroundColor=none;fontFamily=IBM Plex Sans;fontSource=https%3A%2F%2Ffonts.googleapis.com%2Fcss%3Ffamily%3DIBM%2BPlex%2BSans;fillStyle=hachure;container=0;opacity=75;" parent="ik-Oswm8SHKjp2aYhbDL-139" vertex="1">
          <mxGeometry x="137" y="-317" width="149.1238447319778" height="50" as="geometry" />
        </mxCell>
        <mxCell id="ik-Oswm8SHKjp2aYhbDL-159" value="10%&lt;br&gt;ETC." style="rounded=1;whiteSpace=wrap;html=1;arcSize=50;strokeColor=none;strokeWidth=1;fillColor=#727F8C;fontColor=#CCCCCC;whiteSpace=wrap;align=center;verticalAlign=middle;spacingLeft=0;fontStyle=1;fontSize=18;spacing=0;shadow=0;glass=0;labelBackgroundColor=none;fontFamily=IBM Plex Sans;fontSource=https%3A%2F%2Ffonts.googleapis.com%2Fcss%3Ffamily%3DIBM%2BPlex%2BSans;fillStyle=hachure;container=0;horizontal=1;opacity=75;" parent="ik-Oswm8SHKjp2aYhbDL-139" vertex="1">
          <mxGeometry x="586.2125693160813" y="-317" width="48.78743068391867" height="50" as="geometry" />
        </mxCell>
        <mxCell id="ik-Oswm8SHKjp2aYhbDL-160" value="20% website" style="rounded=1;whiteSpace=wrap;html=1;arcSize=50;strokeColor=none;strokeWidth=1;fillColor=#727F8C;fontColor=#CCCCCC;whiteSpace=wrap;align=center;verticalAlign=middle;spacingLeft=0;fontStyle=1;fontSize=18;spacing=10;shadow=0;glass=0;labelBackgroundColor=none;fontFamily=IBM Plex Sans;fontSource=https%3A%2F%2Ffonts.googleapis.com%2Fcss%3Ffamily%3DIBM%2BPlex%2BSans;fillStyle=hachure;container=0;opacity=75;" parent="ik-Oswm8SHKjp2aYhbDL-139" vertex="1">
          <mxGeometry x="291" y="-317" width="93" height="50" as="geometry" />
        </mxCell>
        <mxCell id="ik-Oswm8SHKjp2aYhbDL-161" value="20%&lt;br&gt;subtitling" style="rounded=1;whiteSpace=wrap;html=1;arcSize=50;strokeColor=none;strokeWidth=1;fillColor=#727F8C;fontColor=#CCCCCC;whiteSpace=wrap;align=center;verticalAlign=middle;spacingLeft=0;fontStyle=1;fontSize=18;spacing=10;shadow=0;glass=0;labelBackgroundColor=none;fontFamily=IBM Plex Sans;fontSource=https%3A%2F%2Ffonts.googleapis.com%2Fcss%3Ffamily%3DIBM%2BPlex%2BSans;fillStyle=hachure;container=0;opacity=75;" parent="ik-Oswm8SHKjp2aYhbDL-139" vertex="1">
          <mxGeometry x="389" y="-317" width="93" height="50" as="geometry" />
        </mxCell>
        <mxCell id="ik-Oswm8SHKjp2aYhbDL-162" value="20%&lt;br&gt;P.R." style="rounded=1;whiteSpace=wrap;html=1;arcSize=50;strokeColor=none;strokeWidth=1;fillColor=#727F8C;fontColor=#CCCCCC;whiteSpace=wrap;align=center;verticalAlign=middle;spacingLeft=0;fontStyle=1;fontSize=18;spacing=10;shadow=0;glass=0;labelBackgroundColor=none;fontFamily=IBM Plex Sans;fontSource=https%3A%2F%2Ffonts.googleapis.com%2Fcss%3Ffamily%3DIBM%2BPlex%2BSans;fillStyle=hachure;container=0;opacity=75;" parent="ik-Oswm8SHKjp2aYhbDL-139" vertex="1">
          <mxGeometry x="487" y="-317" width="93" height="50" as="geometry" />
        </mxCell>
        <mxCell id="ik-Oswm8SHKjp2aYhbDL-145" value="40%&lt;br style=&quot;font-size: 12px;&quot;&gt;Infrastructure" style="shape=crossbar;whiteSpace=wrap;html=1;rounded=1;shadow=0;glass=0;labelBackgroundColor=none;strokeColor=default;strokeWidth=2;align=center;verticalAlign=middle;fontFamily=IBM Plex Sans Condensed;fontSize=12;fontColor=default;fillColor=default;fontSource=https%3A%2F%2Ffonts.googleapis.com%2Fcss%3Ffamily%3DIBM%2BPlex%2BSans%2BCondensed;fontStyle=0" parent="ik-Oswm8SHKjp2aYhbDL-139" vertex="1">
          <mxGeometry x="147" y="-503" width="199.68798751950078" height="20" as="geometry" />
        </mxCell>
        <mxCell id="ik-Oswm8SHKjp2aYhbDL-146" value="20%&lt;br style=&quot;font-size: 12px;&quot;&gt;finance" style="shape=crossbar;whiteSpace=wrap;html=1;rounded=1;shadow=0;glass=0;labelBackgroundColor=none;strokeColor=default;strokeWidth=2;align=center;verticalAlign=middle;fontFamily=IBM Plex Sans Condensed;fontSize=12;fontColor=default;fillColor=default;fontSource=https%3A%2F%2Ffonts.googleapis.com%2Fcss%3Ffamily%3DIBM%2BPlex%2BSans%2BCondensed;fontStyle=0" parent="ik-Oswm8SHKjp2aYhbDL-139" vertex="1">
          <mxGeometry x="346.6879875195008" y="-503" width="99.84399375975039" height="20" as="geometry" />
        </mxCell>
        <mxCell id="ik-Oswm8SHKjp2aYhbDL-147" value="10%&lt;br style=&quot;font-size: 12px;&quot;&gt;&amp;nbsp;" style="shape=crossbar;whiteSpace=wrap;html=1;rounded=1;shadow=0;glass=0;labelBackgroundColor=none;strokeColor=default;strokeWidth=2;align=center;verticalAlign=middle;fontFamily=IBM Plex Sans Condensed;fontSize=12;fontColor=default;fillColor=default;fontSource=https%3A%2F%2Ffonts.googleapis.com%2Fcss%3Ffamily%3DIBM%2BPlex%2BSans%2BCondensed;fontStyle=0" parent="ik-Oswm8SHKjp2aYhbDL-139" vertex="1">
          <mxGeometry x="446.53198127925117" y="-503" width="49.921996879875195" height="20" as="geometry" />
        </mxCell>
        <mxCell id="ik-Oswm8SHKjp2aYhbDL-148" value="5%&lt;br style=&quot;font-size: 12px;&quot;&gt;&amp;nbsp;" style="shape=crossbar;whiteSpace=wrap;html=1;rounded=1;shadow=0;glass=0;labelBackgroundColor=none;strokeColor=default;strokeWidth=2;align=center;verticalAlign=middle;fontFamily=IBM Plex Sans Condensed;fontSize=12;fontColor=default;fillColor=default;fontSource=https%3A%2F%2Ffonts.googleapis.com%2Fcss%3Ffamily%3DIBM%2BPlex%2BSans%2BCondensed;fontStyle=0" parent="ik-Oswm8SHKjp2aYhbDL-139" vertex="1">
          <mxGeometry x="496.45800312012483" y="-503" width="24.960998439937597" height="20" as="geometry" />
        </mxCell>
        <mxCell id="ik-Oswm8SHKjp2aYhbDL-149" value="5%&lt;br style=&quot;font-size: 12px;&quot;&gt;&amp;nbsp;" style="shape=crossbar;whiteSpace=wrap;html=1;rounded=1;shadow=0;glass=0;labelBackgroundColor=none;strokeColor=default;strokeWidth=2;align=center;verticalAlign=middle;fontFamily=IBM Plex Sans Condensed;fontSize=12;fontColor=default;fillColor=default;fontSource=https%3A%2F%2Ffonts.googleapis.com%2Fcss%3Ffamily%3DIBM%2BPlex%2BSans%2BCondensed;fontStyle=0" parent="ik-Oswm8SHKjp2aYhbDL-139" vertex="1">
          <mxGeometry x="521.0190015600624" y="-503" width="24.960998439937597" height="20" as="geometry" />
        </mxCell>
        <mxCell id="fKAavyPOBQqlRlKc0EKa-18" value="streamlined" parent="0" />
        <mxCell id="fKAavyPOBQqlRlKc0EKa-37" value="" style="verticalLabelPosition=middle;verticalAlign=top;html=1;shape=mxgraph.basic.pie;startAngle=0.8;endAngle=1;hachureGap=4;fontFamily=Roboto Condensed;fontSource=https%3A%2F%2Ffonts.googleapis.com%2Fcss%3Ffamily%3DRoboto%2BCondensed;fontSize=20;strokeColor=none;fillColor=#999999;labelPosition=center;align=left;fontColor=#6666FF;opacity=30;" parent="fKAavyPOBQqlRlKc0EKa-18" vertex="1">
          <mxGeometry x="227" y="-1429" width="346" height="346" as="geometry" />
        </mxCell>
        <mxCell id="fKAavyPOBQqlRlKc0EKa-36" value="" style="verticalLabelPosition=middle;verticalAlign=middle;html=1;shape=mxgraph.basic.pie;startAngle=0.0;endAngle=0.8;hachureGap=4;fontFamily=Roboto Condensed;fontSource=https%3A%2F%2Ffonts.googleapis.com%2Fcss%3Ffamily%3DRoboto%2BCondensed;fontSize=20;strokeColor=none;fillColor=#CCCCFF;labelPosition=center;align=center;fontColor=#6666FF;opacity=35;" parent="fKAavyPOBQqlRlKc0EKa-18" vertex="1">
          <mxGeometry x="217" y="-1439" width="366" height="366" as="geometry" />
        </mxCell>
        <mxCell id="fKAavyPOBQqlRlKc0EKa-24" value="" style="verticalLabelPosition=bottom;verticalAlign=top;html=1;shape=mxgraph.basic.partConcEllipse;startAngle=0.8;endAngle=1;arcWidth=0.2;hachureGap=4;fontFamily=Roboto Condensed;fontSource=https%3A%2F%2Ffonts.googleapis.com%2Fcss%3Ffamily%3DRoboto%2BCondensed;fontSize=20;sketchStyle=comic;container=0;shadow=1;fillColor=#B3B3B3;opacity=75;" parent="fKAavyPOBQqlRlKc0EKa-18" vertex="1">
          <mxGeometry x="237" y="-1419" width="326" height="326" as="geometry" />
        </mxCell>
        <mxCell id="fKAavyPOBQqlRlKc0EKa-23" value="" style="verticalLabelPosition=bottom;verticalAlign=top;html=1;shape=mxgraph.basic.partConcEllipse;startAngle=0.75;endAngle=0.8;arcWidth=0.2;hachureGap=4;fontFamily=Roboto Condensed;fontSource=https%3A%2F%2Ffonts.googleapis.com%2Fcss%3Ffamily%3DRoboto%2BCondensed;fontSize=20;sketchStyle=comic;container=0;shadow=1;fillColor=#FFCCCC;opacity=75;" parent="fKAavyPOBQqlRlKc0EKa-18" vertex="1">
          <mxGeometry x="237" y="-1419" width="326" height="326" as="geometry" />
        </mxCell>
        <mxCell id="fKAavyPOBQqlRlKc0EKa-22" value="" style="verticalLabelPosition=bottom;verticalAlign=top;html=1;shape=mxgraph.basic.partConcEllipse;startAngle=0.7;endAngle=0.75;arcWidth=0.2;hachureGap=4;fontFamily=Roboto Condensed;fontSource=https%3A%2F%2Ffonts.googleapis.com%2Fcss%3Ffamily%3DRoboto%2BCondensed;fontSize=20;sketchStyle=comic;container=0;shadow=1;fillColor=#FFFF99;opacity=75;" parent="fKAavyPOBQqlRlKc0EKa-18" vertex="1">
          <mxGeometry x="237" y="-1419" width="326" height="326" as="geometry" />
        </mxCell>
        <mxCell id="fKAavyPOBQqlRlKc0EKa-21" value="" style="verticalLabelPosition=bottom;verticalAlign=top;html=1;shape=mxgraph.basic.partConcEllipse;startAngle=0.6;endAngle=0.7;arcWidth=0.2;hachureGap=4;fontFamily=Roboto Condensed;fontSource=https%3A%2F%2Ffonts.googleapis.com%2Fcss%3Ffamily%3DRoboto%2BCondensed;fontSize=20;sketchStyle=comic;container=0;shadow=1;fillColor=#99FF99;opacity=75;" parent="fKAavyPOBQqlRlKc0EKa-18" vertex="1">
          <mxGeometry x="237" y="-1419" width="326" height="326" as="geometry" />
        </mxCell>
        <mxCell id="fKAavyPOBQqlRlKc0EKa-20" value="" style="verticalLabelPosition=bottom;verticalAlign=top;html=1;shape=mxgraph.basic.partConcEllipse;startAngle=0.4;endAngle=0.6;arcWidth=0.2;hachureGap=4;fontFamily=Roboto Condensed;fontSource=https%3A%2F%2Ffonts.googleapis.com%2Fcss%3Ffamily%3DRoboto%2BCondensed;fontSize=20;sketchStyle=comic;container=0;shadow=1;fillColor=#99FFFF;opacity=75;" parent="fKAavyPOBQqlRlKc0EKa-18" vertex="1">
          <mxGeometry x="237" y="-1419" width="326" height="326" as="geometry" />
        </mxCell>
        <mxCell id="fKAavyPOBQqlRlKc0EKa-19" value="" style="verticalLabelPosition=bottom;verticalAlign=top;html=1;shape=mxgraph.basic.partConcEllipse;startAngle=0;endAngle=0.4;arcWidth=0.2;hachureGap=4;fontFamily=Roboto Condensed;fontSource=https%3A%2F%2Ffonts.googleapis.com%2Fcss%3Ffamily%3DRoboto%2BCondensed;fontSize=20;sketchStyle=comic;container=0;shadow=1;comic=0;fillColor=#9999FF;opacity=80;" parent="fKAavyPOBQqlRlKc0EKa-18" vertex="1">
          <mxGeometry x="237" y="-1419" width="326" height="326" as="geometry" />
        </mxCell>
        <mxCell id="fKAavyPOBQqlRlKc0EKa-32" value="Finance" style="whiteSpace=wrap;html=1;shape=partialRectangle;top=0;left=0;bottom=1;right=0;points=[[0,1],[1,1]];fillColor=none;align=left;verticalAlign=bottom;routingCenterY=0.5;snapToPoint=1;recursiveResize=0;autosize=1;treeFolding=1;treeMoving=1;newEdgeStyle={&quot;edgeStyle&quot;:&quot;entityRelationEdgeStyle&quot;,&quot;startArrow&quot;:&quot;none&quot;,&quot;endArrow&quot;:&quot;none&quot;,&quot;segment&quot;:10,&quot;curved&quot;:1,&quot;sourcePerimeterSpacing&quot;:0,&quot;targetPerimeterSpacing&quot;:0};sketch=1;hachureGap=4;jiggle=2;curveFitting=1;fontFamily=Roboto Condensed;fontSize=20;sketchStyle=comic;fontSource=https%3A%2F%2Ffonts.googleapis.com%2Fcss%3Ffamily%3DRoboto%2BCondensed;" parent="fKAavyPOBQqlRlKc0EKa-18" vertex="1">
          <mxGeometry x="511" y="-1113.5" width="116" height="36" as="geometry" />
        </mxCell>
        <mxCell id="fKAavyPOBQqlRlKc0EKa-26" value="&lt;font color=&quot;#4d4d4d&quot;&gt;IT Infrastructure&lt;/font&gt;" style="whiteSpace=wrap;shape=partialRectangle;top=0;left=0;bottom=1;right=0;points=[[0,1],[1,1]];fillColor=none;align=center;verticalAlign=middle;routingCenterY=0.5;snapToPoint=1;recursiveResize=0;autosize=1;treeFolding=1;treeMoving=1;newEdgeStyle={&quot;edgeStyle&quot;:&quot;entityRelationEdgeStyle&quot;,&quot;startArrow&quot;:&quot;none&quot;,&quot;endArrow&quot;:&quot;none&quot;,&quot;segment&quot;:10,&quot;curved&quot;:1,&quot;sourcePerimeterSpacing&quot;:0,&quot;targetPerimeterSpacing&quot;:0};hachureGap=4;fontFamily=Roboto Condensed;fontSize=20;sketchStyle=comic;fontSource=https%3A%2F%2Ffonts.googleapis.com%2Fcss%3Ffamily%3DRoboto%2BCondensed;labelPosition=center;verticalLabelPosition=middle;sketch=1;curveFitting=1;jiggle=2;fontStyle=0;collapsible=0;html=1;" parent="fKAavyPOBQqlRlKc0EKa-18" vertex="1">
          <mxGeometry x="581" y="-1377" width="167" height="36" as="geometry" />
        </mxCell>
        <mxCell id="fKAavyPOBQqlRlKc0EKa-27" value="" style="startArrow=oval;endArrow=none;segment=10;sourcePerimeterSpacing=0;targetPerimeterSpacing=0;rounded=0;sketch=1;hachureGap=4;jiggle=2;curveFitting=1;fontFamily=Roboto Condensed;fontSize=16;startSize=4;endSize=4;sketchStyle=comic;fontSource=https%3A%2F%2Ffonts.googleapis.com%2Fcss%3Ffamily%3DRoboto%2BCondensed;startFill=1;exitX=0.923;exitY=0.322;exitDx=0;exitDy=0;exitPerimeter=0;" parent="fKAavyPOBQqlRlKc0EKa-18" source="fKAavyPOBQqlRlKc0EKa-19" target="fKAavyPOBQqlRlKc0EKa-26" edge="1">
          <mxGeometry relative="1" as="geometry">
            <mxPoint x="535" y="-1307" as="sourcePoint" />
          </mxGeometry>
        </mxCell>
        <mxCell id="fKAavyPOBQqlRlKc0EKa-40" value="IT" style="text;html=1;align=center;verticalAlign=middle;resizable=0;points=[];autosize=1;strokeColor=none;fillColor=none;fontSize=23;fontFamily=Roboto Condensed;fontStyle=1;fontColor=#6666FF;comic=0;fontSource=https%3A%2F%2Ffonts.googleapis.com%2Fcss%3Ffamily%3DRoboto%2BCondensed;" parent="fKAavyPOBQqlRlKc0EKa-18" vertex="1">
          <mxGeometry x="427" y="-1345.5" width="44" height="40" as="geometry" />
        </mxCell>
        <mxCell id="fKAavyPOBQqlRlKc0EKa-41" value="e-commerce" style="whiteSpace=wrap;html=1;shape=partialRectangle;top=0;left=0;bottom=1;right=0;points=[[0,1],[1,1]];fillColor=none;align=left;verticalAlign=bottom;routingCenterY=0.5;snapToPoint=1;recursiveResize=0;autosize=1;treeFolding=1;treeMoving=1;newEdgeStyle={&quot;edgeStyle&quot;:&quot;entityRelationEdgeStyle&quot;,&quot;startArrow&quot;:&quot;none&quot;,&quot;endArrow&quot;:&quot;none&quot;,&quot;segment&quot;:10,&quot;curved&quot;:1,&quot;sourcePerimeterSpacing&quot;:0,&quot;targetPerimeterSpacing&quot;:0};sketch=1;hachureGap=4;jiggle=2;curveFitting=1;fontFamily=Roboto Condensed;fontSource=https%3A%2F%2Ffonts.googleapis.com%2Fcss%3Ffamily%3DRoboto%2BCondensed;fontSize=20;sketchStyle=comic;" parent="fKAavyPOBQqlRlKc0EKa-18" vertex="1">
          <mxGeometry x="60" y="-1130" width="162" height="36" as="geometry" />
        </mxCell>
        <mxCell id="fKAavyPOBQqlRlKc0EKa-43" value="" style="startArrow=oval;endArrow=none;segment=10;sourcePerimeterSpacing=0;targetPerimeterSpacing=0;rounded=0;sketch=1;hachureGap=4;jiggle=2;curveFitting=1;fontFamily=Roboto Condensed;fontSize=16;startSize=4;endSize=4;sketchStyle=comic;fontSource=https%3A%2F%2Ffonts.googleapis.com%2Fcss%3Ffamily%3DRoboto%2BCondensed;startFill=1;entryX=0;entryY=1;entryDx=0;entryDy=0;" parent="fKAavyPOBQqlRlKc0EKa-18" target="fKAavyPOBQqlRlKc0EKa-32" edge="1">
          <mxGeometry relative="1" as="geometry">
            <mxPoint x="477" y="-1128" as="sourcePoint" />
            <mxPoint x="623" y="-1252" as="targetPoint" />
          </mxGeometry>
        </mxCell>
        <mxCell id="fKAavyPOBQqlRlKc0EKa-44" value="" style="startArrow=oval;endArrow=none;segment=10;sourcePerimeterSpacing=0;targetPerimeterSpacing=0;rounded=0;sketch=1;hachureGap=4;jiggle=2;curveFitting=1;fontFamily=Roboto Condensed;fontSize=16;startSize=4;endSize=4;sketchStyle=comic;fontSource=https%3A%2F%2Ffonts.googleapis.com%2Fcss%3Ffamily%3DRoboto%2BCondensed;startFill=1;entryX=1;entryY=1;entryDx=0;entryDy=0;" parent="fKAavyPOBQqlRlKc0EKa-18" target="fKAavyPOBQqlRlKc0EKa-41" edge="1">
          <mxGeometry relative="1" as="geometry">
            <mxPoint x="276" y="-1171" as="sourcePoint" />
            <mxPoint x="602" y="-1062" as="targetPoint" />
          </mxGeometry>
        </mxCell>
        <mxCell id="fKAavyPOBQqlRlKc0EKa-45" value="ETC." style="text;html=1;align=center;verticalAlign=middle;resizable=0;points=[];autosize=1;strokeColor=none;fillColor=none;fontSize=23;fontFamily=Roboto Condensed;fontStyle=1;fontColor=#808080;fontSource=https%3A%2F%2Ffonts.googleapis.com%2Fcss%3Ffamily%3DRoboto%2BCondensed;" parent="fKAavyPOBQqlRlKc0EKa-18" vertex="1">
          <mxGeometry x="305" y="-1345.5" width="73" height="40" as="geometry" />
        </mxCell>
        <mxCell id="fKAavyPOBQqlRlKc0EKa-46" value="UI/UX" style="whiteSpace=wrap;html=1;shape=partialRectangle;top=0;left=0;bottom=1;right=0;points=[[0,1],[1,1]];fillColor=none;align=left;verticalAlign=bottom;routingCenterY=0.5;snapToPoint=1;recursiveResize=0;autosize=1;treeFolding=1;treeMoving=1;newEdgeStyle={&quot;edgeStyle&quot;:&quot;entityRelationEdgeStyle&quot;,&quot;startArrow&quot;:&quot;none&quot;,&quot;endArrow&quot;:&quot;none&quot;,&quot;segment&quot;:10,&quot;curved&quot;:1,&quot;sourcePerimeterSpacing&quot;:0,&quot;targetPerimeterSpacing&quot;:0};sketch=1;hachureGap=4;jiggle=2;curveFitting=1;fontFamily=Roboto Condensed;fontSource=https%3A%2F%2Ffonts.googleapis.com%2Fcss%3Ffamily%3DRoboto%2BCondensed;fontSize=20;sketchStyle=comic;" parent="fKAavyPOBQqlRlKc0EKa-18" vertex="1">
          <mxGeometry x="60" y="-1242" width="101" height="36" as="geometry" />
        </mxCell>
        <mxCell id="fKAavyPOBQqlRlKc0EKa-47" value="" style="startArrow=oval;endArrow=none;segment=10;sourcePerimeterSpacing=0;targetPerimeterSpacing=0;rounded=0;sketch=1;hachureGap=4;jiggle=2;curveFitting=1;fontFamily=Roboto Condensed;fontSize=16;startSize=4;endSize=4;sketchStyle=comic;fontSource=https%3A%2F%2Ffonts.googleapis.com%2Fcss%3Ffamily%3DRoboto%2BCondensed;startFill=1;entryX=1;entryY=1;entryDx=0;entryDy=0;" parent="fKAavyPOBQqlRlKc0EKa-18" target="fKAavyPOBQqlRlKc0EKa-46" edge="1">
          <mxGeometry relative="1" as="geometry">
            <mxPoint x="254" y="-1233" as="sourcePoint" />
            <mxPoint x="201" y="-1173" as="targetPoint" />
          </mxGeometry>
        </mxCell>
        <mxCell id="fKAavyPOBQqlRlKc0EKa-48" value="API&lt;br&gt;Documentation" style="whiteSpace=wrap;html=1;shape=partialRectangle;top=0;left=0;bottom=1;right=0;points=[[0,1],[1,1]];fillColor=none;align=left;verticalAlign=bottom;routingCenterY=0.5;snapToPoint=1;recursiveResize=0;autosize=1;treeFolding=1;treeMoving=1;newEdgeStyle={&quot;edgeStyle&quot;:&quot;entityRelationEdgeStyle&quot;,&quot;startArrow&quot;:&quot;none&quot;,&quot;endArrow&quot;:&quot;none&quot;,&quot;segment&quot;:10,&quot;curved&quot;:1,&quot;sourcePerimeterSpacing&quot;:0,&quot;targetPerimeterSpacing&quot;:0};sketch=1;hachureGap=4;jiggle=2;curveFitting=1;fontFamily=Roboto Condensed;fontSource=https%3A%2F%2Ffonts.googleapis.com%2Fcss%3Ffamily%3DRoboto%2BCondensed;fontSize=20;sketchStyle=comic;" parent="fKAavyPOBQqlRlKc0EKa-18" vertex="1">
          <mxGeometry x="60" y="-1349" width="194" height="60" as="geometry" />
        </mxCell>
        <mxCell id="fKAavyPOBQqlRlKc0EKa-49" value="" style="startArrow=oval;endArrow=none;segment=10;sourcePerimeterSpacing=0;targetPerimeterSpacing=0;rounded=0;sketch=1;hachureGap=4;jiggle=2;curveFitting=1;fontFamily=Roboto Condensed;fontSize=16;startSize=4;endSize=4;sketchStyle=comic;fontSource=https%3A%2F%2Ffonts.googleapis.com%2Fcss%3Ffamily%3DRoboto%2BCondensed;startFill=1;entryX=1;entryY=1;entryDx=0;entryDy=0;" parent="fKAavyPOBQqlRlKc0EKa-18" target="fKAavyPOBQqlRlKc0EKa-48" edge="1">
          <mxGeometry relative="1" as="geometry">
            <mxPoint x="253" y="-1280" as="sourcePoint" />
            <mxPoint x="201" y="-1268" as="targetPoint" />
          </mxGeometry>
        </mxCell>
        <mxCell id="fKAavyPOBQqlRlKc0EKa-51" value="40%" style="text;html=1;align=left;verticalAlign=middle;resizable=0;points=[];autosize=1;strokeColor=none;fillColor=none;fontSize=20;fontFamily=Roboto Condensed;fontStyle=0;fontColor=#E6D0DE;textOpacity=80;fontSource=https%3A%2F%2Ffonts.googleapis.com%2Fcss%3Ffamily%3DRoboto%2BCondensed;" parent="fKAavyPOBQqlRlKc0EKa-18" vertex="1">
          <mxGeometry x="595" y="-1346" width="56" height="36" as="geometry" />
        </mxCell>
        <mxCell id="fKAavyPOBQqlRlKc0EKa-52" value="10%" style="text;html=1;align=right;verticalAlign=middle;resizable=0;points=[];autosize=1;strokeColor=none;fillColor=none;fontSize=20;fontFamily=Roboto Condensed;fontStyle=0;fontColor=#E6D0DE;textOpacity=80;fontSource=https%3A%2F%2Ffonts.googleapis.com%2Fcss%3Ffamily%3DRoboto%2BCondensed;" parent="fKAavyPOBQqlRlKc0EKa-18" vertex="1">
          <mxGeometry x="107" y="-1096" width="56" height="36" as="geometry" />
        </mxCell>
        <mxCell id="fKAavyPOBQqlRlKc0EKa-53" value="20%" style="text;html=1;align=left;verticalAlign=middle;resizable=0;points=[];autosize=1;strokeColor=none;fillColor=none;fontSize=20;fontFamily=Roboto Condensed;fontStyle=0;fontColor=#E6D0DE;textOpacity=80;fontSource=https%3A%2F%2Ffonts.googleapis.com%2Fcss%3Ffamily%3DRoboto%2BCondensed;" parent="fKAavyPOBQqlRlKc0EKa-18" vertex="1">
          <mxGeometry x="512" y="-1081.5" width="56" height="36" as="geometry" />
        </mxCell>
        <mxCell id="fKAavyPOBQqlRlKc0EKa-54" value="5%" style="text;html=1;align=right;verticalAlign=middle;resizable=0;points=[];autosize=1;strokeColor=none;fillColor=none;fontSize=20;fontFamily=Roboto Condensed;fontStyle=0;fontColor=#E6D0DE;textOpacity=80;fontSource=https%3A%2F%2Ffonts.googleapis.com%2Fcss%3Ffamily%3DRoboto%2BCondensed;" parent="fKAavyPOBQqlRlKc0EKa-18" vertex="1">
          <mxGeometry x="67" y="-1209" width="45" height="36" as="geometry" />
        </mxCell>
        <mxCell id="fKAavyPOBQqlRlKc0EKa-55" value="5%" style="text;html=1;align=right;verticalAlign=middle;resizable=0;points=[];autosize=1;strokeColor=none;fillColor=none;fontSize=20;fontFamily=Roboto Condensed;fontStyle=0;fontColor=#E6D0DE;textOpacity=80;fontSource=https%3A%2F%2Ffonts.googleapis.com%2Fcss%3Ffamily%3DRoboto%2BCondensed;" parent="fKAavyPOBQqlRlKc0EKa-18" vertex="1">
          <mxGeometry x="137" y="-1293" width="45" height="36" as="geometry" />
        </mxCell>
        <mxCell id="fKAavyPOBQqlRlKc0EKa-56" value="80%" style="text;html=1;align=center;verticalAlign=middle;resizable=0;points=[];autosize=1;strokeColor=none;fillColor=none;fontSize=20;fontFamily=Roboto Condensed;fontStyle=1;fontColor=#6666FF;fontSource=https%3A%2F%2Ffonts.googleapis.com%2Fcss%3Ffamily%3DRoboto%2BCondensed;" parent="fKAavyPOBQqlRlKc0EKa-18" vertex="1">
          <mxGeometry x="424" y="-1316.5" width="56" height="36" as="geometry" />
        </mxCell>
        <mxCell id="fKAavyPOBQqlRlKc0EKa-57" value="20%" style="text;html=1;align=center;verticalAlign=middle;resizable=0;points=[];autosize=1;strokeColor=none;fillColor=none;fontSize=20;fontFamily=Roboto Condensed;fontStyle=1;fontColor=#808080;fontSource=https%3A%2F%2Ffonts.googleapis.com%2Fcss%3Ffamily%3DRoboto%2BCondensed;" parent="fKAavyPOBQqlRlKc0EKa-18" vertex="1">
          <mxGeometry x="314" y="-1316.5" width="56" height="36" as="geometry" />
        </mxCell>
      </root>
    </mxGraphModel>
  </diagram>
</mxfile>
